<?xml version="1.0" encoding="utf-8"?>
<!-- Generator: Adobe Illustrator 19.1.0, SVG Export Plug-In . SVG Version: 6.00 Build 0)  -->
<svg version="1.1" id="Layer_1" xmlns="http://www.w3.org/2000/svg" xmlns:xlink="http://www.w3.org/1999/xlink" x="0px" y="0px"
	 width="50px" height="50px" viewBox="0 0 1000 1000" style="enable-background:new 0 0 1000 1000;" xml:space="preserve">
<style type="text/css">
	.st0{fill:#009696;}
	.st1{fill:#00C4CE;}
	.st2{fill:#1DA099;}
	.st3{fill:#FFFFFF;}
	.st4{fill:#1FE5E5;}
	.st5{fill:#FF0134;}
	.st6{fill:#F26D9E;}
</style>
<g>
	<path class="st0" d="M407.5,134.2c55-6,110.8-5.6,165.7,1c0.1-0.5,0.1-1,0.1-1.6c0-2.1-1.3-4.3-3.1-6.4
		c-6.9-7.9-16.3-12.8-22.9-21.3c-7.1-9.2-12.2-19.9-14.5-31.3c-2.8-13.7-1.7-27.8-2.6-41.8c-0.4-6.9-5.6-12.7-10.5-4.6
		c-15.4,25.8-21.2,57.2-16,86.8c-17.7-16.9-30.5-38.8-36.3-62.6c-0.9-3.5-1.7-7.3-2.9-10.8c-2.3-6.3-11.2-6-13.2,0.4
		c-4.9,15.8-2.4,35.7-3.4,50.7c-0.3,4,1,8.9-0.3,12.3c-17.5-9.5-26.9-42.2-29.8-60.1c-0.9-5.7-1.6-11.6-3.1-17.2
		c-0.5-2.1-2.7-4.7-4.6-5.2c-1.4-0.4-4.4,1.8-5.3,3.6c-1.9,3.8-3.1,8-4.1,12.2c-4.4,18.6-3.9,37.6-2.8,56.5
		C398.6,108.8,397.7,123.6,407.5,134.2z"/>
	<path class="st1" d="M735.4,853.6c-4.2,8.8-16.2,12.5-27.6,8.2c-11.9-4.5-18.6-16-15-25.7c0.6-1.6,1.5-3.1,2.6-4.4
		C707.6,842.4,721.4,849.9,735.4,853.6z M830,753.9c-1-0.1-2,0-3,0.1c2.3,15.9,1.5,31.5-2.3,45.5c0.9,0.2,1.8,0.3,2.7,0.4
		c10.4,0.6,19.4-9.2,20.1-21.9C848.2,765.3,840.4,754.5,830,753.9z M810,829.5c-6.8,8.8-15.5,15.9-25.8,20.6l0,0
		c-3.8,1.7-7.7,3.1-11.7,4.1c4.3,9.4,17.1,12.8,28.7,7.5c11.6-5.2,17.5-17.2,13.2-26.6C813.3,832.9,811.8,831,810,829.5z"/>
	<path class="st1" d="M276.3,831.8c1.1,1.3,1.9,2.8,2.6,4.4c3.6,9.7-3.1,21.2-15,25.7c-11.4,4.3-23.3,0.6-27.6-8.2
		C250.4,849.9,264.1,842.4,276.3,831.8z M124.3,778c0.7,12.7,9.8,22.5,20.1,21.9c0.9-0.1,1.8-0.2,2.7-0.4c-3.8-14-4.7-29.5-2.3-45.5
		c-1-0.1-2-0.2-3-0.1C131.4,754.5,123.6,765.3,124.3,778z M157.4,835.1c-4.3,9.5,1.6,21.4,13.2,26.6c11.5,5.2,24.4,1.8,28.7-7.5
		c-4-1-7.9-2.4-11.7-4.1l0,0c-10.3-4.7-19-11.8-25.8-20.6C159.9,831,158.4,832.9,157.4,835.1z"/>
	<path class="st1" d="M771.3,241.5c-1.7-17.4-4.4-35.5-14.7-49.6c-12-16.4-32.1-24.4-51.4-30.6c-141.4-45.7-297.2-45.7-438.7,0
		c-19.3,6.2-39.4,14.3-51.4,30.6c-10.3,14.1-13,32.2-14.7,49.6c-9.3,97.6,10.6,185.6,34,279.4c23.9,95.9,44.5,192.6,61.8,289.9
		c10.5,59.2,35.4,83,94.9,93c95.9,16,262.2,32.6,284.4-93c17.3-97.3,37.9-194,61.8-289.9C760.7,427.1,780.7,339.2,771.3,241.5z"/>
	<path class="st2" d="M481,914.1v30.4c0,14.5-11.7,26.5-26.2,26.5h-85.7c-14.5,0-26.1-12-26.1-26.5v-55.9
		c13,7.1,28.6,11.9,48.2,15.1C417.4,908.1,449,912.5,481,914.1z M491,914.4v30.1c0,14.5,11.5,26.5,26,26.5h85.7
		c14.5,0,26.3-12,26.3-26.5v-59.4C593,909.8,541,915.9,491,914.4z"/>
	<path class="st2" d="M234.4,520.9c-2.2-8.8-4.4-17.5-6.5-26.2l-72.5,223.8c-24.4,53.4-10,112.4,32.2,131.7l0,0
		c36.1,16.5,80.9-1.3,108.4-40.3C278.8,712.8,258.3,616.5,234.4,520.9z"/>
	<path class="st2" d="M816.3,718.5l-72.5-223.8c-2.1,8.7-4.3,17.5-6.5,26.2c-23.8,95.6-44.4,191.9-61.6,288.9
		c27.5,39,72.3,56.9,108.4,40.3l0,0C826.4,830.8,840.8,771.9,816.3,718.5z"/>
	<path class="st3" d="M390.7,362.7c0,37.6-30.4,68-68,68s-68-30.4-68-68s30.4-68,68-68S390.7,325.1,390.7,362.7z M486.2,216.3
		c-47.4,0-85.8,38.4-85.8,85.8s38.4,85.8,85.8,85.8s85.8-38.4,85.8-85.8S533.5,216.3,486.2,216.3z M649,294.7c-37.6,0-68,30.4-68,68
		s30.4,68,68,68s68-30.4,68-68S686.6,294.7,649,294.7z"/>
	<path d="M322.7,328.6c-18.8,0-34,15.2-34,34s15.2,34,34,34c18.8,0,34-15.2,34-34S341.5,328.6,322.7,328.6z M331.7,366.5
		c-6.5,0-11.8-5.3-11.8-11.8c0-6.5,5.3-11.8,11.8-11.8c6.5,0,11.8,5.3,11.8,11.8C343.5,361.2,338.2,366.5,331.7,366.5z M486.2,259.2
		c-23.7,0-42.9,19.2-42.9,42.9s19.2,42.9,42.9,42.9c23.7,0,42.9-19.2,42.9-42.9S509.9,259.2,486.2,259.2z M497.5,306.9
		c-8.2,0-14.9-6.7-14.9-14.9c0-8.2,6.7-14.9,14.9-14.9c8.2,0,14.9,6.7,14.9,14.9C512.3,300.2,505.7,306.9,497.5,306.9z M649,328.6
		c-18.8,0-34,15.2-34,34s15.2,34,34,34c18.8,0,34-15.2,34-34S667.8,328.6,649,328.6z M658,366.5c-6.5,0-11.8-5.3-11.8-11.8
		c0-6.5,5.3-11.8,11.8-11.8c6.5,0,11.8,5.3,11.8,11.8C669.8,361.2,664.5,366.5,658,366.5z"/>
	<path class="st4" d="M607,840.5c-2.4,3.4-6,5.9-11,7.3c-73.6,21.1-149.5,23.7-222.7-1.1c-2.4-0.8-4.8-1.7-6.7-3.3
		c-11.4-9.6-1.9-39.6,2.5-50.7c6.7-17,18.1-32.9,34.2-42.1c32.6-18.6,84.2-10.8,120-8.2c17,1.2,34.8,2.7,49.4,11.4
		C590.8,764.5,622.4,819.1,607,840.5z"/>
	<path class="st5" d="M356.7,536.4c7.1,64.9,62.4,115.1,128.6,115.1v0.2c67.5,0,122.7-50.5,129.8-115.3H356.7z"/>
	<path class="st6" d="M573,618.2c-22.7-9.3-53.4-15-87.2-15c-33.8,0-64.4,5.7-87.1,15c23,20.7,53.4,33.3,86.5,33.3v0.2
		C519.1,651.7,549.9,639,573,618.2z"/>
	<path class="st3" d="M540.4,536c7.2,18,9.4,37.9,7.6,57.8c-0.8,8.7,10.1,13.2,15.9,6.6c16.9-19.3,28-40.4,33.8-64.4H540.4z"/>
</g>
</svg>
